<svg width="624" height="2059" viewBox="0 0 624 2059" fill="none" xmlns="http://www.w3.org/2000/svg">
<path d="M-31.8366 896.194C-48.175 869.446 -58.2635 840.975 -56.5414 805.204C-50.6152 684.543 1.7109 602.341 -25.3147 457.091C-39.2374 382.499 -74.5542 308.059 -120.665 243.656C-338.713 -60.2824 -512.507 -34.6797 -561.146 10.4493C-611.001 56.6661 -567.159 201.355 -528.585 299.074C-481.084 419.485 -423.792 543.39 -406.628 662.274C-388.517 787.797 -331.998 1079.59 -282.081 1216.22C-246.862 1312.61 -168.91 1458.26 -101.159 1498.35C-33.4068 1538.44 22.9121 1476.34 67.6408 1442.2C112.369 1408.06 347.495 1740.99 362.778 1668.08C383.327 1570.03 299.181 1405.93 239.897 1298.75C179.782 1190.09 112.478 1087.36 40.9401 991.486C14.4409 956.097 -12.8862 927.281 -31.8366 896.194Z" stroke="url(#paint0_linear_2265_16)" stroke-opacity="0.2" stroke-width="3"/>
<path d="M-571.707 -8.79089C-624.95 40.6451 -578.008 195.693 -536.885 300.268C-486.234 429.137 -424.866 561.886 -406.652 689.173C-387.34 823.545 -342.789 1102.24 -289.408 1248.57C-251.769 1351.9 -169.917 1496.47 -97.4468 1539.45C-32.6807 1577.86 21.6512 1524.61 66.0868 1495.53C111.878 1465.59 324.144 1756.47 343.036 1689.14C369.074 1595.85 301.411 1440.06 251.995 1331.89C202.432 1223.3 142.905 1118.7 76.925 1019.84C52.4739 983.234 26.9082 952.563 8.35715 919.947C-7.55205 892.198 -18.0717 863.026 -18.887 827.069C-20.0568 772.917 -15.3686 724.55 -12.2151 675.932C-9.48317 634.489 -8.04094 592.611 -13.1838 545.673C-15.6578 522.922 -20.237 498.592 -26.9538 472.005C-45.3542 399.715 -82.083 326.29 -129.928 259.308C-201.003 160.07 -268.073 89.1106 -328.71 41.436C-442.345 -48.0637 -534.027 -43.8628 -571.707 -8.79089Z" stroke="url(#paint1_linear_2265_16)" stroke-opacity="0.2" stroke-width="3"/>
<path d="M-582.427 -28.921C-639.08 23.761 -589.151 189.182 -545.331 300.75C-491.383 438.229 -426.177 579.746 -406.644 715.664C-386.126 858.964 -353.587 1124.6 -296.852 1280.64C-256.788 1390.81 -170.873 1534.52 -93.9181 1580.26C-32.0143 1617.05 20.3203 1572.58 64.3438 1548.69C111.339 1523.08 300.796 1771.76 322.915 1709.66C354.601 1621.26 303.236 1473.88 263.858 1364.78C224.636 1256.28 173.302 1149.86 112.897 1047.99C90.6402 1010.4 66.8413 977.854 48.5507 943.447C33.0633 914.518 21.9709 884.39 18.6152 848.417C13.4476 792.97 11.5582 742.29 7.89302 691.714C4.85275 648.967 0.682998 606.545 -8.91716 559.568C-13.5339 537.266 -20.2769 513.037 -28.9087 486.526C-51.4065 416.967 -90.0879 344.087 -139.418 274.658C-208.638 177.329 -274.844 100.687 -336.538 44.1292C-443.718 -54.3797 -539.424 -68.9973 -582.427 -28.921Z" stroke="url(#paint2_linear_2265_16)" stroke-opacity="0.2" stroke-width="3"/>
<path d="M-593.188 -49.8326C-653.254 6.27639 -600.337 181.936 -553.936 300.618C-496.679 446.738 -427.483 597.304 -406.899 741.557C-385.04 893.893 -364.712 1146.02 -304.613 1311.81C-262.115 1428.83 -172.257 1571.56 -90.5406 1620.23C-31.6472 1655.3 18.9498 1620.02 62.5493 1601.21C110.759 1580.15 277.273 1785.84 302.772 1729.29C340.261 1645.92 305.15 1507.16 275.843 1396.83C247.142 1288.52 203.909 1180.22 149.102 1075.17C128.919 1036.52 107.028 1002.18 89.0086 966.148C73.9459 936.038 62.2871 905.126 56.5115 869.229C47.3291 812.494 38.8333 759.496 28.3117 706.791C19.4821 662.916 9.79912 619.865 -4.40824 572.787C-11.0537 550.853 -19.9532 527.077 -30.5239 500.309C-57.0039 433.605 -97.6434 361.299 -148.592 289.345C-216.058 194.237 -281.245 112.305 -344.162 46.04C-445.025 -59.8011 -544.84 -94.9435 -593.188 -49.8326Z" stroke="url(#paint3_linear_2265_16)" stroke-opacity="0.2" stroke-width="3"/>
<path d="M-604.003 -71.4323C-667.488 -12.0812 -611.578 173.951 -562.476 299.627C-502.036 454.451 -428.87 613.692 -406.966 766.577C-383.899 927.838 -375.702 1166.43 -312.119 1341.83C-267.182 1465.86 -173.267 1607.41 -86.9155 1659.09C-31.0614 1692.41 17.9178 1666.67 60.8014 1652.49C110.358 1636.28 253.791 1798.68 282.523 1747.16C326.094 1669.08 306.929 1539.05 287.875 1427.62C269.501 1319.77 234.539 1209.55 185.377 1101.54C167.415 1061.93 147.314 1025.72 129.571 988.072C114.948 956.965 102.716 925.112 94.3727 889.065C80.8911 830.742 66.1747 776.025 48.6401 721.131C34.2549 676.134 18.7761 632.322 -0.168278 585.44C-8.8487 563.892 -19.919 540.416 -32.5486 513.672C-62.7645 449.877 -105.745 378.134 -158.172 303.762C-223.867 210.784 -287.972 124.435 -352.124 47.9141C-446.467 -64.8249 -550.178 -121.679 -604.003 -71.4323Z" stroke="url(#paint4_linear_2265_16)" stroke-opacity="0.2" stroke-width="3"/>
<path d="M-614.885 -93.6407C-681.766 -31.0958 -622.886 165.162 -571.102 297.734C-507.381 461.046 -430.267 629.007 -407.323 790.073C-383.059 960.132 -387.181 1184.58 -320.124 1369.81C-272.774 1500.57 -174.967 1640.87 -83.889 1695.42C-31.1162 1726.94 16.2129 1710.83 58.3626 1701.5C109.375 1690.27 229.559 1808.76 261.272 1762.56C311.062 1690.14 307.504 1568.62 299.013 1456.37C290.881 1349.03 264.37 1237.08 220.883 1125.87C205.035 1085.43 186.865 1047.28 169.535 1007.96C155.361 975.883 142.429 943.042 131.786 907.214C114.007 847.531 93.1661 790.709 68.4905 733.941C48.5478 688.037 27.5264 643.666 3.69254 596.611C-6.89289 575.553 -20.0112 552.313 -34.8308 525.545C-68.522 464.733 -113.941 393.903 -168.094 316.852C-231.973 226.123 -295.317 135.881 -360.449 48.4224C-448.379 -69.564 -555.717 -148.903 -614.885 -93.6407Z" stroke="url(#paint5_linear_2265_16)" stroke-opacity="0.2" stroke-width="3"/>
<path d="M-625.759 -116.165C-695.97 -50.5383 -634.189 155.419 -579.907 294.57C-512.97 466.077 -432.117 642.377 -407.887 811.663C-382.32 990.293 -398.78 1200.11 -328.457 1394.59C-278.742 1531.85 -177.003 1670.86 -81.5628 1727.87C-31.802 1757.59 13.7 1751.26 55.0611 1746.65C107.485 1740.6 204.38 1814.89 239.038 1773.94C295.143 1707.59 307.078 1594.42 309.177 1481.58C311.173 1374.7 293.288 1261.31 255.684 1147.54C241.963 1106.17 225.624 1066.25 208.734 1025.5C195.017 992.344 181.406 958.747 168.472 923.209C146.277 862.201 119.595 803.706 87.6458 744.746C62.1504 697.851 35.4604 652.756 6.9031 606.042C-5.71049 585.439 -20.866 562.48 -37.8547 535.913C-74.8747 477.945 -122.941 408.186 -178.5 328.756C-240.49 240.46 -303.375 146.77 -368.906 48.4827C-451.09 -74.6626 -561.443 -176.601 -625.759 -116.165Z" stroke="url(#paint6_linear_2265_16)" stroke-opacity="0.2" stroke-width="3"/>
<path d="M-636.854 -139.253C-710.345 -70.4419 -645.561 145.247 -588.684 290.907C-518.571 470.425 -433.898 654.955 -408.659 832.125C-381.937 1019.06 -410.586 1214.28 -336.909 1417.87C-284.984 1561.57 -179.392 1698.81 -79.374 1758.54C-32.7869 1786.36 11.1402 1790.32 51.6715 1790.08C105.623 1789.64 179.032 1819.41 216.606 1783.58C279.009 1723.72 306.281 1618.6 318.977 1505.44C330.97 1399.07 321.731 1284.54 290.023 1168.14C278.438 1125.89 263.94 1084.24 247.5 1042.11C234.125 1008 219.837 973.509 204.611 938.126C178.03 876.202 145.359 815.33 106.311 754.836C75.4021 706.906 43.0682 661.306 9.6813 615.077C-4.82116 595.03 -22.0126 572.204 -41.2918 545.788C-81.6261 490.554 -132.303 422.111 -189.226 340.56C-249.306 254.445 -312.194 157.611 -377.584 48.3975C-454.366 -80.0112 -567.289 -204.548 -636.854 -139.253Z" stroke="url(#paint7_linear_2265_16)" stroke-opacity="0.2" stroke-width="3"/>
<path d="M12.1627 622.404C-71.1576 522.508 -224.467 347.898 -386.392 47.7242C-458.397 -85.8952 -573.069 -232.598 -647.978 -162.563C-724.721 -90.7787 -657.081 134.4 -597.756 286.377C-524.621 473.69 -436.153 666.306 -409.644 851.386C-381.636 1046.56 -422.58 1226.84 -345.7 1439.31C-291.455 1589.26 -182.04 1724.79 -77.6181 1787.11C26.804 1849.42 124.438 1843.79 193.376 1790.76C262.307 1737.56 304.481 1640.13 328.016 1526.9C375.687 1296.94 317.365 1022.79 124.502 763.033C88.1943 714.104 50.2321 668.035 12.1627 622.404Z" stroke="url(#paint8_linear_2265_16)" stroke-opacity="0.2" stroke-width="3"/>
<defs>
<linearGradient id="paint0_linear_2265_16" x1="-142.687" y1="142.925" x2="-725.95" y2="1128.66" gradientUnits="userSpaceOnUse">
<stop stop-color="white" stop-opacity="0.03"/>
<stop offset="1" stop-color="white" stop-opacity="0.9"/>
</linearGradient>
<linearGradient id="paint1_linear_2265_16" x1="-157.27" y1="138.327" x2="-756.431" y2="1148.64" gradientUnits="userSpaceOnUse">
<stop stop-color="white" stop-opacity="0"/>
<stop offset="1" stop-color="white" stop-opacity="0.75"/>
</linearGradient>
<linearGradient id="paint2_linear_2265_16" x1="-171.437" y1="129.762" x2="-788.262" y2="1167.58" gradientUnits="userSpaceOnUse">
<stop stop-color="white" stop-opacity="0.03"/>
<stop offset="1" stop-color="white" stop-opacity="0.9"/>
</linearGradient>
<linearGradient id="paint3_linear_2265_16" x1="-184.404" y1="117.988" x2="-820.244" y2="1185.66" gradientUnits="userSpaceOnUse">
<stop stop-color="white" stop-opacity="0.03"/>
<stop offset="1" stop-color="white" stop-opacity="0.9"/>
</linearGradient>
<linearGradient id="paint4_linear_2265_16" x1="-195.267" y1="104.002" x2="-851.012" y2="1203.29" gradientUnits="userSpaceOnUse">
<stop stop-color="white" stop-opacity="0.03"/>
<stop offset="1" stop-color="white" stop-opacity="0.9"/>
</linearGradient>
<linearGradient id="paint5_linear_2265_16" x1="-202.775" y1="88.9776" x2="-878.672" y2="1220.8" gradientUnits="userSpaceOnUse">
<stop stop-color="white" stop-opacity="0.03"/>
<stop offset="1" stop-color="white" stop-opacity="0.9"/>
</linearGradient>
<linearGradient id="paint6_linear_2265_16" x1="-204.229" y1="75.2123" x2="-899.543" y2="1239.28" gradientUnits="userSpaceOnUse">
<stop stop-color="white" stop-opacity="0.03"/>
<stop offset="1" stop-color="white" stop-opacity="0.9"/>
</linearGradient>
<linearGradient id="paint7_linear_2265_16" x1="-202.158" y1="61.9268" x2="-916.72" y2="1258.5" gradientUnits="userSpaceOnUse">
<stop stop-color="white" stop-opacity="0.03"/>
<stop offset="1" stop-color="white" stop-opacity="0.9"/>
</linearGradient>
<linearGradient id="paint8_linear_2265_16" x1="-197.794" y1="48.773" x2="-931.172" y2="1277.76" gradientUnits="userSpaceOnUse">
<stop stop-color="white" stop-opacity="0.03"/>
<stop offset="1" stop-color="white" stop-opacity="0.9"/>
</linearGradient>
</defs>
</svg>
