<svg width="383" height="125" viewBox="0 0 383 125" fill="none" xmlns="http://www.w3.org/2000/svg">
<path d="M5.86101 6.20174C4.12096 4.33975 1 5.57107 1 8.11955V89.829C1 91.3803 2.25755 92.6379 3.80882 92.6379H11.4367C12.988 92.6379 14.2455 91.3803 14.2455 89.829V42.3787C14.2455 39.8315 17.3639 38.5996 19.1048 40.459L58.3696 82.3977C59.4533 83.5551 61.2796 83.5868 62.4027 82.4675L68.1029 76.7871C69.1768 75.7168 69.2076 73.9874 68.1724 72.8797L5.86101 6.20174Z" fill="black"/>
<path d="M87.0746 87.4361C88.8147 89.2981 91.9356 88.0668 91.9356 85.5183V3.80883C91.9356 2.25756 90.6781 1 89.1268 1H81.4989C79.9477 1 78.6901 2.25755 78.6901 3.80882V51.2591C78.6901 53.8064 75.5718 55.0383 73.8309 53.1788L34.566 11.2402C33.4824 10.0827 31.656 10.0511 30.5329 11.1703L24.8328 16.8508C23.7588 17.921 23.7281 19.6504 24.7633 20.7582L87.0746 87.4361Z" fill="black"/>
<path d="M5.86101 6.20174C4.12096 4.33975 1 5.57107 1 8.11955V89.829C1 91.3803 2.25755 92.6379 3.80882 92.6379H11.4367C12.988 92.6379 14.2455 91.3803 14.2455 89.829V42.3787C14.2455 39.8315 17.3639 38.5996 19.1048 40.459L58.3696 82.3977C59.4533 83.5551 61.2796 83.5868 62.4027 82.4675L68.1029 76.7871C69.1768 75.7168 69.2076 73.9874 68.1724 72.8797L5.86101 6.20174Z" stroke="#1C2AC9" stroke-width="0.161652"/>
<path d="M87.0746 87.4361C88.8147 89.2981 91.9356 88.0668 91.9356 85.5183V3.80883C91.9356 2.25756 90.6781 1 89.1268 1H81.4989C79.9477 1 78.6901 2.25755 78.6901 3.80882V51.2591C78.6901 53.8064 75.5718 55.0383 73.8309 53.1788L34.566 11.2402C33.4824 10.0827 31.656 10.0511 30.5329 11.1703L24.8328 16.8508C23.7588 17.921 23.7281 19.6504 24.7633 20.7582L87.0746 87.4361Z" stroke="#1C2AC9" stroke-width="0.161652"/>
<path d="M120.186 116.831H123.746C125.4 116.831 126.626 116.317 127.426 115.291C128.24 114.251 128.646 112.791 128.646 110.911C128.646 106.897 127.06 104.891 123.886 104.891H120.186V116.831ZM118.846 118.011V103.711H123.926C125.966 103.711 127.493 104.357 128.506 105.651C129.533 106.944 130.046 108.697 130.046 110.911C130.046 113.097 129.513 114.831 128.446 116.111C127.393 117.377 125.84 118.011 123.786 118.011H118.846ZM131.85 118.011V107.671H133.09V118.011H131.85ZM131.85 105.471V103.711H133.09V105.471H131.85ZM139.228 121.631C138.002 121.631 137.028 121.377 136.308 120.871C135.588 120.377 135.182 119.731 135.088 118.931H136.288C136.488 120.051 137.455 120.611 139.188 120.611C140.268 120.611 141.075 120.351 141.608 119.831C142.155 119.311 142.428 118.584 142.428 117.651V116.011H142.368C141.582 117.211 140.488 117.811 139.088 117.811C137.742 117.811 136.662 117.337 135.848 116.391C135.048 115.431 134.648 114.184 134.648 112.651C134.648 111.037 135.075 109.771 135.928 108.851C136.782 107.917 137.835 107.451 139.088 107.451C140.542 107.451 141.635 108.057 142.368 109.271H142.428V107.671H143.648V117.611C143.648 118.757 143.328 119.684 142.688 120.391C141.902 121.217 140.748 121.631 139.228 121.631ZM139.148 116.771C140.268 116.771 141.108 116.404 141.668 115.671C142.228 114.924 142.508 113.911 142.508 112.631C142.508 111.364 142.222 110.357 141.648 109.611C141.088 108.864 140.262 108.491 139.168 108.491C138.155 108.491 137.362 108.871 136.788 109.631C136.215 110.377 135.928 111.391 135.928 112.671C135.928 113.897 136.202 114.891 136.748 115.651C137.295 116.397 138.095 116.771 139.148 116.771ZM145.775 118.011V107.671H147.015V118.011H145.775ZM145.775 105.471V103.711H147.015V105.471H145.775ZM151.954 118.091C150.634 118.091 149.974 117.471 149.974 116.231V108.691H148.414V107.671H149.974V104.491H151.214V107.671H153.134V108.691H151.214V116.031C151.214 116.391 151.294 116.644 151.454 116.791C151.614 116.937 151.868 117.011 152.214 117.011C152.521 117.011 152.794 116.957 153.034 116.851H153.094V117.911C152.761 118.031 152.381 118.091 151.954 118.091ZM157.461 118.251C156.461 118.251 155.648 118.004 155.021 117.511C154.394 117.017 154.081 116.304 154.081 115.371C154.081 114.784 154.181 114.291 154.381 113.891C154.594 113.477 154.914 113.157 155.341 112.931C155.781 112.704 156.221 112.537 156.661 112.431C157.114 112.311 157.674 112.211 158.341 112.131C159.461 111.997 160.201 111.857 160.561 111.711C160.934 111.551 161.121 111.224 161.121 110.731V110.531C161.121 109.144 160.294 108.451 158.641 108.451C156.801 108.451 155.834 109.217 155.741 110.751H154.521C154.588 109.724 154.968 108.917 155.661 108.331C156.354 107.744 157.348 107.451 158.641 107.451C161.081 107.451 162.301 108.517 162.301 110.651V116.271C162.301 116.844 162.528 117.144 162.981 117.171C163.048 117.171 163.201 117.144 163.441 117.091H163.501V117.991C163.261 118.097 162.981 118.151 162.661 118.151C161.701 118.151 161.194 117.664 161.141 116.691V116.471H161.081C160.241 117.657 159.034 118.251 157.461 118.251ZM157.681 117.251C158.748 117.251 159.588 116.951 160.201 116.351C160.828 115.737 161.141 115.044 161.141 114.271V112.411C160.634 112.691 159.741 112.917 158.461 113.091C158.034 113.144 157.694 113.197 157.441 113.251C157.201 113.304 156.928 113.384 156.621 113.491C156.328 113.597 156.101 113.724 155.941 113.871C155.794 114.017 155.661 114.217 155.541 114.471C155.434 114.724 155.381 115.024 155.381 115.371C155.381 116.624 156.148 117.251 157.681 117.251ZM164.702 118.011V103.711H165.942V118.011H164.702ZM176.287 118.271C174.487 118.271 173.094 117.824 172.107 116.931C171.12 116.024 170.587 114.837 170.507 113.371H171.847C171.914 114.571 172.334 115.504 173.107 116.171C173.894 116.824 174.96 117.151 176.307 117.151C177.387 117.151 178.267 116.891 178.947 116.371C179.627 115.837 179.967 115.097 179.967 114.151C179.967 113.204 179.647 112.531 179.007 112.131C178.38 111.731 177.234 111.364 175.567 111.031C174.074 110.737 172.947 110.317 172.187 109.771C171.44 109.224 171.067 108.371 171.067 107.211C171.067 106.077 171.507 105.164 172.387 104.471C173.267 103.777 174.42 103.431 175.847 103.431C177.38 103.431 178.567 103.811 179.407 104.571C180.26 105.317 180.754 106.331 180.887 107.611H179.587C179.467 106.624 179.074 105.871 178.407 105.351C177.754 104.817 176.907 104.551 175.867 104.551C174.787 104.551 173.934 104.791 173.307 105.271C172.68 105.737 172.367 106.371 172.367 107.171C172.367 107.971 172.66 108.557 173.247 108.931C173.847 109.291 174.847 109.604 176.247 109.871C176.9 109.991 177.44 110.111 177.867 110.231C178.294 110.337 178.747 110.504 179.227 110.731C179.707 110.944 180.08 111.191 180.347 111.471C180.627 111.751 180.86 112.111 181.047 112.551C181.234 112.991 181.327 113.504 181.327 114.091C181.327 115.357 180.86 116.371 179.927 117.131C179.007 117.891 177.794 118.271 176.287 118.271ZM187.32 117.231C188.426 117.231 189.286 116.817 189.9 115.991C190.513 115.164 190.82 114.117 190.82 112.851C190.82 111.584 190.513 110.537 189.9 109.711C189.286 108.884 188.426 108.471 187.32 108.471C186.2 108.471 185.333 108.884 184.72 109.711C184.106 110.537 183.8 111.584 183.8 112.851C183.8 114.117 184.106 115.164 184.72 115.991C185.333 116.817 186.2 117.231 187.32 117.231ZM187.32 118.271C185.853 118.271 184.686 117.764 183.82 116.751C182.953 115.724 182.52 114.424 182.52 112.851C182.52 111.277 182.953 109.984 183.82 108.971C184.686 107.944 185.853 107.431 187.32 107.431C188.773 107.431 189.926 107.944 190.78 108.971C191.646 109.984 192.08 111.277 192.08 112.851C192.08 114.424 191.646 115.724 190.78 116.751C189.926 117.764 188.773 118.271 187.32 118.271ZM193.705 118.011V103.711H194.945V118.011H193.705ZM200.403 118.251C199.39 118.251 198.57 117.964 197.943 117.391C197.316 116.804 197.003 115.997 197.003 114.971V107.671H198.243V114.891C198.243 115.651 198.456 116.231 198.883 116.631C199.31 117.017 199.91 117.211 200.683 117.211C201.563 117.211 202.283 116.917 202.843 116.331C203.403 115.744 203.683 115.011 203.683 114.131V107.671H204.903V118.011H203.683V116.491H203.643C203.23 117.051 202.776 117.484 202.283 117.791C201.79 118.097 201.163 118.251 200.403 118.251ZM209.825 118.091C208.505 118.091 207.845 117.471 207.845 116.231V108.691H206.285V107.671H207.845V104.491H209.085V107.671H211.005V108.691H209.085V116.031C209.085 116.391 209.165 116.644 209.325 116.791C209.485 116.937 209.739 117.011 210.085 117.011C210.392 117.011 210.665 116.957 210.905 116.851H210.965V117.911C210.632 118.031 210.252 118.091 209.825 118.091ZM212.67 118.011V107.671H213.91V118.011H212.67ZM212.67 105.471V103.711H213.91V105.471H212.67ZM220.269 117.231C221.375 117.231 222.235 116.817 222.849 115.991C223.462 115.164 223.769 114.117 223.769 112.851C223.769 111.584 223.462 110.537 222.849 109.711C222.235 108.884 221.375 108.471 220.269 108.471C219.149 108.471 218.282 108.884 217.669 109.711C217.055 110.537 216.749 111.584 216.749 112.851C216.749 114.117 217.055 115.164 217.669 115.991C218.282 116.817 219.149 117.231 220.269 117.231ZM220.269 118.271C218.802 118.271 217.635 117.764 216.769 116.751C215.902 115.724 215.469 114.424 215.469 112.851C215.469 111.277 215.902 109.984 216.769 108.971C217.635 107.944 218.802 107.431 220.269 107.431C221.722 107.431 222.875 107.944 223.729 108.971C224.595 109.984 225.029 111.277 225.029 112.851C225.029 114.424 224.595 115.724 223.729 116.751C222.875 117.764 221.722 118.271 220.269 118.271ZM226.595 118.011V107.671H227.835V109.251H227.875C228.688 108.051 229.841 107.451 231.335 107.451C232.321 107.451 233.115 107.737 233.715 108.311C234.328 108.871 234.635 109.657 234.635 110.671V118.011H233.395V110.791C233.395 109.271 232.608 108.511 231.035 108.511C230.141 108.511 229.381 108.791 228.755 109.351C228.141 109.911 227.835 110.611 227.835 111.451V118.011H226.595ZM240.254 118.291C238.92 118.291 237.887 117.971 237.154 117.331C236.434 116.691 236.04 115.844 235.974 114.791H237.234C237.407 116.417 238.42 117.231 240.274 117.231C241.114 117.231 241.76 117.051 242.214 116.691C242.667 116.331 242.894 115.844 242.894 115.231C242.894 114.671 242.7 114.257 242.314 113.991C241.94 113.724 241.214 113.471 240.134 113.231C239.507 113.084 239.007 112.951 238.634 112.831C238.26 112.711 237.874 112.544 237.474 112.331C237.087 112.104 236.8 111.824 236.614 111.491C236.44 111.144 236.354 110.731 236.354 110.251C236.354 109.397 236.687 108.717 237.354 108.211C238.02 107.704 238.887 107.451 239.954 107.451C242.247 107.451 243.527 108.471 243.794 110.511H242.554C242.407 109.151 241.54 108.471 239.954 108.471C239.18 108.471 238.594 108.631 238.194 108.951C237.794 109.271 237.594 109.684 237.594 110.191C237.594 110.737 237.807 111.131 238.234 111.371C238.66 111.597 239.434 111.844 240.554 112.111C241.78 112.364 242.68 112.704 243.254 113.131C243.84 113.544 244.134 114.237 244.134 115.211C244.134 116.144 243.78 116.891 243.074 117.451C242.38 118.011 241.44 118.291 240.254 118.291Z" fill="black"/>
<path d="M326.245 112.946C325.224 112.946 324.397 112.59 323.764 111.88C323.131 111.158 322.815 110.231 322.815 109.099C322.815 107.955 323.126 107.017 323.747 106.284C324.369 105.551 325.213 105.185 326.279 105.185C327.089 105.185 327.75 105.401 328.261 105.834C328.782 106.267 329.104 106.839 329.226 107.55H328.211C328.122 107.095 327.911 106.734 327.578 106.467C327.245 106.19 326.812 106.051 326.279 106.051C325.502 106.051 324.902 106.334 324.48 106.9C324.058 107.467 323.847 108.199 323.847 109.099C323.847 109.987 324.058 110.709 324.48 111.264C324.913 111.819 325.502 112.096 326.245 112.096C326.845 112.096 327.328 111.924 327.694 111.58C328.061 111.225 328.272 110.764 328.327 110.198H329.31C329.276 110.953 329.01 111.58 328.51 112.08C327.955 112.657 327.2 112.946 326.245 112.946ZM322.365 113.112C323.387 114.178 324.669 114.711 326.212 114.711C327.755 114.711 329.032 114.178 330.043 113.112C331.064 112.046 331.575 110.709 331.575 109.099C331.575 107.478 331.064 106.134 330.043 105.068C329.032 104.003 327.755 103.47 326.212 103.47C324.669 103.47 323.387 104.003 322.365 105.068C321.355 106.134 320.85 107.478 320.85 109.099C320.85 110.709 321.355 112.046 322.365 113.112ZM330.542 113.529C329.376 114.705 327.933 115.294 326.212 115.294C324.491 115.294 323.048 114.705 321.882 113.529C320.716 112.352 320.133 110.875 320.133 109.099C320.133 107.322 320.716 105.846 321.882 104.669C323.048 103.481 324.491 102.887 326.212 102.887C327.933 102.887 329.376 103.481 330.542 104.669C331.708 105.846 332.291 107.322 332.291 109.099C332.291 110.875 331.708 112.352 330.542 113.529ZM333.336 115.011C333.347 114.6 333.397 114.211 333.486 113.845C333.575 113.479 333.675 113.168 333.786 112.912C333.897 112.646 334.074 112.374 334.318 112.096C334.563 111.808 334.757 111.591 334.901 111.447C335.046 111.291 335.29 111.092 335.634 110.847C335.989 110.603 336.234 110.442 336.367 110.364C336.511 110.276 336.778 110.115 337.166 109.881C338.132 109.304 338.754 108.877 339.032 108.599C339.531 108.099 339.781 107.472 339.781 106.717C339.781 105.962 339.559 105.368 339.115 104.935C338.671 104.502 338.071 104.286 337.316 104.286C336.506 104.286 335.873 104.53 335.418 105.018C334.951 105.529 334.713 106.279 334.702 107.267H333.602C333.602 106.034 333.941 105.08 334.618 104.402C335.307 103.714 336.228 103.37 337.383 103.37C338.438 103.37 339.281 103.686 339.914 104.319C340.558 104.941 340.88 105.729 340.88 106.684C340.88 107.195 340.808 107.644 340.664 108.033C340.53 108.421 340.286 108.782 339.931 109.115C339.587 109.437 339.292 109.682 339.048 109.848C338.815 110.015 338.432 110.253 337.899 110.564C337.844 110.597 337.805 110.625 337.782 110.647C337.76 110.659 337.727 110.675 337.683 110.697C337.638 110.72 337.599 110.742 337.566 110.764C337.133 111.019 336.794 111.23 336.55 111.397C336.306 111.563 336.017 111.785 335.684 112.063C335.362 112.341 335.107 112.64 334.918 112.962C334.74 113.284 334.624 113.634 334.568 114.012H340.73V115.011H333.336ZM346.318 114.311C347.34 114.311 348.111 113.873 348.633 112.996C349.155 112.119 349.416 110.886 349.416 109.298C349.416 107.744 349.144 106.517 348.6 105.618C348.067 104.719 347.306 104.269 346.318 104.269C345.319 104.269 344.547 104.713 344.003 105.601C343.47 106.478 343.204 107.711 343.204 109.298C343.204 110.853 343.47 112.08 344.003 112.979C344.547 113.867 345.319 114.311 346.318 114.311ZM346.301 115.244C344.969 115.244 343.931 114.711 343.187 113.645C342.454 112.579 342.088 111.13 342.088 109.298C342.088 107.455 342.466 106.007 343.22 104.952C343.987 103.886 345.019 103.353 346.318 103.353C347.617 103.353 348.644 103.88 349.399 104.935C350.154 105.99 350.531 107.444 350.531 109.298C350.531 111.142 350.16 112.596 349.416 113.662C348.683 114.717 347.645 115.244 346.301 115.244ZM351.616 115.011C351.627 114.6 351.677 114.211 351.766 113.845C351.855 113.479 351.955 113.168 352.066 112.912C352.177 112.646 352.354 112.374 352.599 112.096C352.843 111.808 353.037 111.591 353.182 111.447C353.326 111.291 353.57 111.092 353.914 110.847C354.27 110.603 354.514 110.442 354.647 110.364C354.791 110.276 355.058 110.115 355.446 109.881C356.412 109.304 357.034 108.877 357.312 108.599C357.811 108.099 358.061 107.472 358.061 106.717C358.061 105.962 357.839 105.368 357.395 104.935C356.951 104.502 356.351 104.286 355.596 104.286C354.786 104.286 354.153 104.53 353.698 105.018C353.231 105.529 352.993 106.279 352.982 107.267H351.883C351.883 106.034 352.221 105.08 352.898 104.402C353.587 103.714 354.508 103.37 355.663 103.37C356.718 103.37 357.561 103.686 358.194 104.319C358.838 104.941 359.16 105.729 359.16 106.684C359.16 107.195 359.088 107.644 358.944 108.033C358.811 108.421 358.566 108.782 358.211 109.115C357.867 109.437 357.573 109.682 357.328 109.848C357.095 110.015 356.712 110.253 356.179 110.564C356.124 110.597 356.085 110.625 356.063 110.647C356.04 110.659 356.007 110.675 355.963 110.697C355.918 110.72 355.879 110.742 355.846 110.764C355.413 111.019 355.075 111.23 354.83 111.397C354.586 111.563 354.297 111.785 353.964 112.063C353.642 112.341 353.387 112.64 353.198 112.962C353.021 113.284 352.904 113.634 352.848 114.012H359.01V115.011H351.616ZM364.96 115.011V112.096H359.631V111.097L365.11 103.486H366.009V111.197H367.775V112.096H366.009V115.011H364.96ZM360.713 111.197H364.96V105.302H364.927L360.713 111.147V111.197Z" fill="black"/>
<path d="M279.543 67.2553L279.546 67.2625L283.132 78.7896C284.464 74.3304 285.667 70.4844 286.742 67.2523L279.543 67.2553ZM279.543 67.2553L267.149 29.1652C266.891 28.3711 266.151 27.8336 265.316 27.8336H257.864C256.537 27.8336 255.606 29.1441 256.044 30.3975L276.581 89.2097C276.851 89.9837 277.582 90.5022 278.402 90.5022H287.179C287.993 90.5022 288.719 89.9913 288.994 89.2253L310.099 30.4131C310.549 29.1569 309.618 27.8336 308.284 27.8336H301.2C300.369 27.8336 299.631 28.3662 299.37 29.1551L286.742 67.2518L279.543 67.2553ZM167.677 63.6995L167.668 63.6828L167.657 63.6667L129.373 5.15189C129.017 4.60745 128.41 4.27936 127.76 4.27936H118.56C117.495 4.27936 116.632 5.14265 116.632 6.20757V88.574C116.632 89.6389 117.495 90.5022 118.56 90.5022H125.837C126.902 90.5022 127.765 89.6389 127.765 88.574V21.8127L133.207 30.9745L133.214 30.9858L133.221 30.9969L171.742 89.6327C172.098 90.1754 172.704 90.5022 173.354 90.5022H182.199C183.264 90.5022 184.127 89.6389 184.127 88.574V6.20756C184.127 5.14265 183.264 4.27936 182.199 4.27936H174.922C173.857 4.27936 172.994 5.14265 172.994 6.20756V73.1301L167.677 63.6995ZM202.251 82.6883L202.253 82.6915C207.832 89.0142 215.196 92.1677 224.286 92.1677C233.377 92.1677 240.702 89.014 246.203 82.6883C251.686 76.3832 254.415 68.5492 254.415 59.2274C254.415 49.9056 251.686 42.0716 246.203 35.7665C240.702 29.4408 233.377 26.2871 224.286 26.2871C215.196 26.2871 207.832 29.4406 202.253 35.7633L202.251 35.7665C196.768 42.0716 194.039 49.9056 194.039 59.2274C194.039 68.5492 196.768 76.3832 202.251 82.6883ZM238.294 42.0868L238.294 42.0868L238.3 42.0958C241.685 46.4911 243.4 52.1855 243.4 59.2274C243.4 66.1896 241.724 71.8883 238.414 76.366C235.137 80.7201 230.455 82.9124 224.286 82.9124C218.118 82.9124 213.395 80.7206 210.038 76.3634C206.729 71.8861 205.053 66.1882 205.053 59.2274C205.053 52.2655 206.729 46.5669 210.04 42.0893C213.398 37.6524 218.121 35.4234 224.286 35.4234C230.37 35.4234 235.013 37.6508 238.294 42.0868ZM312.308 66.3667L312.303 66.3763C311.396 68.5269 310.952 71.0662 310.952 73.9785C310.952 79.6831 312.954 84.1109 316.998 87.1721C320.998 90.2008 326.115 91.6918 332.3 91.6918C340.627 91.6918 347.365 88.6537 352.465 82.5826C353.044 85.193 354.15 87.245 355.821 88.6847C357.714 90.3148 360.26 91.097 363.388 91.097C364.949 91.097 366.225 91.0322 367.559 90.6391C368.366 90.4015 368.836 89.645 368.836 88.8711V82.7623C368.836 82.2741 368.387 81.923 367.923 82.0179C365.566 82.4991 364.191 82.1592 363.483 81.3413C362.744 80.3901 362.31 78.6596 362.31 76.0009V46.7365C362.31 40.1188 360.384 35.0564 356.442 31.6625C352.516 28.283 346.689 26.644 339.064 26.644C331.143 26.644 324.971 28.5694 320.636 32.5054L320.632 32.5092C316.706 36.142 314.536 40.8608 314.107 46.6232C314.025 47.7343 314.924 48.628 316 48.628H322.577C323.625 48.628 324.446 47.7979 324.537 46.7989C324.901 42.8255 326.305 39.9235 328.69 38.0031C331.087 36.0728 334.557 35.0665 339.182 35.0665C343.456 35.0665 346.67 36.0021 348.904 37.7933L348.912 37.8L348.92 37.8063C351.202 39.5037 352.364 41.9739 352.364 45.309C352.364 46.4908 352.107 47.4969 351.612 48.3467C351.081 49.2597 350.525 49.9589 349.952 50.4619C349.418 50.9298 348.416 51.4152 346.859 51.8845C345.294 52.2768 344.002 52.5906 342.984 52.8263C342.041 52.9834 340.433 53.2194 338.153 53.5345L338.143 53.5361C334.58 54.0918 331.639 54.6491 329.325 55.2087C326.995 55.6926 324.553 56.4562 321.999 57.4961C319.504 58.4647 317.498 59.6472 316.006 61.0584C314.51 62.3929 313.282 64.1697 312.308 66.3667ZM352.482 67.1972V67.1978C352.482 71.1507 350.934 74.8196 347.776 78.2184C344.67 81.483 340.252 83.1504 334.436 83.1504C330.265 83.1504 327.244 82.3269 325.274 80.7771C323.332 79.2481 322.323 76.9395 322.323 73.7406C322.323 72.0657 322.626 70.6519 323.211 69.4803L323.211 69.4803L323.217 69.4678C323.825 68.1712 324.536 67.1688 325.336 66.439C326.127 65.7179 327.354 65.0362 329.059 64.4145L329.07 64.4106L329.08 64.4062C330.796 63.7028 332.297 63.2419 333.588 63.0134L333.605 63.0105L333.621 63.0067C334.955 62.6919 336.806 62.2971 339.174 61.8221C341.617 61.3689 343.807 61.2125 345.764 61.0859C345.877 61.0786 345.989 61.0714 346.1 61.0643C347.908 60.9483 349.549 60.8431 350.958 60.5148C351.303 60.4346 351.702 60.5151 352.015 60.7202C352.325 60.9232 352.489 61.2031 352.488 61.4897L352.482 67.1972Z" fill="black" stroke="black" stroke-width="1.16589"/>
</svg>
