<svg width="30" height="31" viewBox="0 0 76 71" fill="none" xmlns="http://www.w3.org/2000/svg">
<path d="M4.67164 0.946435C3.28078 -0.542681 0.785156 0.441519 0.785156 2.47916V68.3317C0.785156 69.5718 1.79049 70.5772 3.03063 70.5772H9.20005C10.4402 70.5772 11.4455 69.5718 11.4455 68.3317V30.0666C11.4455 28.0299 13.939 27.0452 15.3306 28.5323L46.9682 62.3422C47.8346 63.2681 49.2953 63.2934 50.1932 62.3981L54.8031 57.8016C55.6611 56.9462 55.6857 55.5643 54.8586 54.6788L4.67164 0.946435Z" fill="#1C2AC9"/>
<path d="M71.328 69.9286C72.7188 71.4177 75.2145 70.4335 75.2145 68.3959V2.54337C75.2145 1.30323 74.2091 0.297897 72.969 0.297897H66.7996C65.5594 0.297897 64.5541 1.30323 64.5541 2.54337V40.8085C64.5541 42.8451 62.0606 43.8298 60.669 42.3427L29.0315 8.53287C28.1651 7.60697 26.7044 7.58167 25.8065 8.477L21.1966 13.0734C20.3386 13.9289 20.314 15.3108 21.1411 16.1962L47.436 44.3488L71.328 69.9286Z" fill="#1C2AC9"/>
<path d="M4.67164 0.946435C3.28078 -0.542681 0.785156 0.441519 0.785156 2.47916V68.3317C0.785156 69.5718 1.79049 70.5772 3.03063 70.5772H9.20005C10.4402 70.5772 11.4455 69.5718 11.4455 68.3317V30.0666C11.4455 28.0299 13.939 27.0452 15.3306 28.5323L46.9682 62.3422C47.8346 63.2681 49.2953 63.2934 50.1932 62.3981L54.8031 57.8016C55.6611 56.9462 55.6857 55.5643 54.8586 54.6788L4.67164 0.946435Z" stroke="#1C2AC9" stroke-width="0.129231"/>
<path d="M71.328 69.9286C72.7188 71.4177 75.2145 70.4335 75.2145 68.3959V2.54337C75.2145 1.30323 74.2091 0.297897 72.969 0.297897H66.7996C65.5594 0.297897 64.5541 1.30323 64.5541 2.54337V40.8085C64.5541 42.8451 62.0606 43.8298 60.669 42.3427L29.0315 8.53287C28.1651 7.60697 26.7044 7.58167 25.8065 8.477L21.1966 13.0734C20.3386 13.9289 20.314 15.3108 21.1411 16.1962L47.436 44.3488L71.328 69.9286Z" stroke="#1C2AC9" stroke-width="0.129231"/>
</svg>
