<svg width="46" height="44" viewBox="0 0 46 44" fill="none" xmlns="http://www.w3.org/2000/svg">
<path d="M2.4377 0.487681C1.57959 -0.441088 0.0398825 0.172764 0.0398825 1.44365V42.5162C0.0398825 43.2897 0.660137 43.9167 1.42526 43.9167H5.23157C5.9967 43.9167 6.61695 43.2897 6.61695 42.5162V18.65C6.61695 17.3798 8.15536 16.7656 9.0139 17.6931L28.5332 38.7805C29.0677 39.358 29.9689 39.3738 30.5229 38.8154L33.3671 35.9485C33.8964 35.415 33.9116 34.5531 33.4013 34.0008L2.4377 0.487681Z" fill="#FAFAFA"/>
<path d="M43.5623 43.5122C44.4204 44.441 45.9602 43.8271 45.9602 42.5562V1.4837C45.9602 0.710219 45.3399 0.0831862 44.5748 0.0831862H40.7685C40.0033 0.0831862 39.3831 0.710217 39.3831 1.4837V25.3498C39.3831 26.6201 37.8447 27.2342 36.9861 26.3067L17.4669 5.21938C16.9324 4.64189 16.0312 4.62611 15.4772 5.18453L12.633 8.05133C12.1037 8.5849 12.0885 9.44679 12.5988 9.99906L43.5623 43.5122Z" fill="#FAFAFA"/>
<path fill-rule="evenodd" clip-rule="evenodd" d="M2.40855 0.515253C1.57513 -0.38679 0.0797307 0.209398 0.0797307 1.44371V42.5162C0.0797307 43.2675 0.682137 43.8764 1.42524 43.8764H5.23156C5.97466 43.8764 6.57707 43.2675 6.57707 42.5162V18.6501C6.57707 17.3433 8.15975 16.7115 9.04299 17.6657L28.5623 38.753C29.0814 39.3139 29.9567 39.3292 30.4948 38.7869L33.3389 35.9201C33.853 35.4019 33.8677 34.5648 33.3722 34.0284L2.40855 0.515253ZM0 1.44371C0 0.136257 1.58401 -0.495259 2.46682 0.460236L33.4304 33.9734C33.9554 34.5415 33.9398 35.4282 33.3952 35.9771L30.5511 38.844C29.9811 39.4184 29.054 39.4022 28.5041 38.8081L8.98477 17.7207C8.15094 16.8199 6.6568 17.4164 6.6568 18.6501V42.5162C6.6568 43.312 6.0187 43.9571 5.23156 43.9571H1.42524C0.638103 43.9571 0 43.312 0 42.5162V1.44371ZM39.3432 1.48376C39.3432 0.688023 39.9813 0.0429493 40.7684 0.0429493H44.5748C45.3619 0.0429493 46 0.688025 46 1.48376V42.5563C46 43.8637 44.416 44.4953 43.5332 43.5398L12.5696 10.0266C12.0447 9.45848 12.0603 8.57178 12.6049 8.02286L15.449 5.15606C16.0189 4.58156 16.9461 4.5978 17.496 5.1919L37.0152 26.2793C37.8491 27.1801 39.3432 26.5836 39.3432 25.3499V1.48376ZM40.7684 0.123551C40.0253 0.123551 39.4229 0.732538 39.4229 1.48376V25.3499C39.4229 26.6567 37.8403 27.2885 36.957 26.3343L17.4378 5.24697C16.9186 4.68611 16.0434 4.67078 15.5053 5.21313L12.6612 8.07993C12.147 8.59815 12.1323 9.43524 12.6279 9.97161L43.5914 43.4847C44.4249 44.3868 45.9203 43.7906 45.9203 42.5563V1.48376C45.9203 0.73254 45.3179 0.123551 44.5748 0.123551H40.7684Z" fill="#FAFAFA"/>
</svg>
